# xmcd
#
# Track frame offsets:
#	150
#	5225
#	33470
#	53172
#	96982
#	137070
#	170695
#	173623
#
# Disc length: 2545 seconds
#
# Revision: 1
# Processed by: cddbd v1.5.2PL0 Copyright (c) Steve Scherf et al.
# Submitted via: audiograbber 1.83.01
#
DISCID=6909ef08
DTITLE=Grateful Dead - 86-12-30 Henry J Kaiser Convention Centre, Oakland CA
DYEAR=1900
DGENRE=
TTITLE0=Drums
TTITLE1=Iko Iko
TTITLE2=Men Smart Women Smarter
TTITLE3=Stella Blue
TTITLE4=Throwing Stones
TTITLE5=Not Fade Away
TTITLE6=Not Fade Awat Tease
TTITLE7=Johnny B Goode
EXTD=
EXTT0=
EXTT1=
EXTT2=
EXTT3=
EXTT4=
EXTT5=
EXTT6=
EXTT7=
PLAYORDER=
